<?xml version="1.0" encoding="UTF-8"?>
<svg id="Layer_1" data-name="Layer 1" xmlns="http://www.w3.org/2000/svg" viewBox="0 0 730.37 729.6" fill="white">
  <path d="M684.52,257.42c-28.56-28.43-56.97-57.02-85.46-85.52-42.74-42.75-85.08-85.91-128.34-128.13-59.05-57.62-151.22-58.56-209.16-1.54C188,114.62,114.93,187.54,42.59,261.16c-56.61,57.61-56.86,149.6-.34,207.27,72.53,74.01,146.11,147.02,219.81,219.87,28.45,28.12,63.75,41.28,99.78,41.29,43.68-.38,78.58-13.57,106.68-41.36,73.39-72.58,146.66-145.3,218.88-219.05,58.78-60.02,56.71-152.46-2.89-211.77Zm-83.3,90.48c-7.32,16.02-20.56,22.6-37.75,22.57-41.51-.08-83.02-.03-124.52-.03v-.25h-146.52c-5.65,3.48-10.28,8.64-13.66,15.9-6.89,14.82-3.75,29.81,9.09,42.73,37.1,37.31,74.33,74.49,111.54,111.69,14.32,14.31,19.5,31.31,13.79,50.75-11.09,37.77-55.93,48.44-84.83,20.03-33.41-32.85-66.29-66.25-99.42-99.39-36.04-36.05-72.14-72.03-108.13-108.12-24.15-24.21-24.41-53.07-.39-77.15,69.08-69.27,138.27-138.44,207.52-207.54,22.61-22.56,51.66-22.97,74.42-.7,63.16,61.8,126.11,123.82,189.06,185.84,13.44,13.25,16.83,28.3,9.81,43.67Z"/>
</svg>